<svg id="visual" viewBox="0 0 1920 1080" width="1920" height="1080" xmlns="http://www.w3.org/2000/svg" xmlns:xlink="http://www.w3.org/1999/xlink" version="1.1"><rect x="0" y="0" width="1920" height="1080" fill="#001220"></rect><defs><linearGradient id="grad1_0" x1="43.8%" y1="100%" x2="100%" y2="0%"><stop offset="14.444444444444446%" stop-color="#363636" stop-opacity="1"></stop><stop offset="85.55555555555554%" stop-color="#363636" stop-opacity="1"></stop></linearGradient></defs><defs><linearGradient id="grad1_1" x1="43.8%" y1="100%" x2="100%" y2="0%"><stop offset="14.444444444444446%" stop-color="#363636" stop-opacity="1"></stop><stop offset="85.55555555555554%" stop-color="#1d242b" stop-opacity="1"></stop></linearGradient></defs><defs><linearGradient id="grad1_2" x1="43.8%" y1="100%" x2="100%" y2="0%"><stop offset="14.444444444444446%" stop-color="#001220" stop-opacity="1"></stop><stop offset="85.55555555555554%" stop-color="#1d242b" stop-opacity="1"></stop></linearGradient></defs><defs><linearGradient id="grad2_0" x1="0%" y1="100%" x2="56.3%" y2="0%"><stop offset="14.444444444444446%" stop-color="#363636" stop-opacity="1"></stop><stop offset="85.55555555555554%" stop-color="#363636" stop-opacity="1"></stop></linearGradient></defs><defs><linearGradient id="grad2_1" x1="0%" y1="100%" x2="56.3%" y2="0%"><stop offset="14.444444444444446%" stop-color="#1d242b" stop-opacity="1"></stop><stop offset="85.55555555555554%" stop-color="#363636" stop-opacity="1"></stop></linearGradient></defs><defs><linearGradient id="grad2_2" x1="0%" y1="100%" x2="56.3%" y2="0%"><stop offset="14.444444444444446%" stop-color="#1d242b" stop-opacity="1"></stop><stop offset="85.55555555555554%" stop-color="#001220" stop-opacity="1"></stop></linearGradient></defs><g transform="translate(1920, 1080)"><path d="M-810 0C-740.2 -72.2 -670.5 -144.4 -620.1 -201.5C-569.7 -258.6 -538.8 -300.6 -526.7 -382.6C-514.6 -464.7 -521.3 -586.7 -476.1 -655.3C-430.9 -723.9 -333.7 -739.2 -245.7 -756.1C-157.7 -773 -78.8 -791.5 0 -810L0 0Z" fill="#111b25"></path><path d="M-540 0C-493.5 -48.1 -447 -96.2 -413.4 -134.3C-379.8 -172.4 -359.2 -200.4 -351.1 -255.1C-343 -309.8 -347.6 -391.1 -317.4 -436.9C-287.3 -482.6 -222.5 -492.8 -163.8 -504.1C-105.1 -515.3 -52.6 -527.7 0 -540L0 0Z" fill="#2a2d30"></path><path d="M-270 0C-246.7 -24.1 -223.5 -48.1 -206.7 -67.2C-189.9 -86.2 -179.6 -100.2 -175.6 -127.5C-171.5 -154.9 -173.8 -195.6 -158.7 -218.4C-143.6 -241.3 -111.2 -246.4 -81.9 -252C-52.6 -257.7 -26.3 -263.8 0 -270L0 0Z" fill="#363636"></path></g><g transform="translate(0, 0)"><path d="M810 0C813.2 92.2 816.4 184.4 770.4 250.3C724.3 316.2 629.1 355.8 568.7 413.2C508.4 470.6 482.8 545.9 430.8 593C378.9 640.1 300.6 659 224.3 690.5C148.1 721.9 74.1 766 0 810L0 0Z" fill="#111b25"></path><path d="M540 0C542.1 61.5 544.2 122.9 513.6 166.9C482.9 210.8 419.4 237.2 379.2 275.5C338.9 313.8 321.9 363.9 287.2 395.3C252.6 426.7 200.4 439.3 149.6 460.3C98.8 481.3 49.4 510.6 0 540L0 0Z" fill="#2a2d30"></path><path d="M270 0C271.1 30.7 272.1 61.5 256.8 83.4C241.4 105.4 209.7 118.6 189.6 137.7C169.5 156.9 160.9 182 143.6 197.7C126.3 213.4 100.2 219.7 74.8 230.2C49.4 240.6 24.7 255.3 0 270L0 0Z" fill="#363636"></path></g></svg>